<svg width="100%" viewBox="0 0 840 158" fill="none" xmlns="http://www.w3.org/2000/svg" style="">
<defs>
  <filter id="f0" x="3.432" y="15" width="168.704" height="80.112" filterUnits="userSpaceOnUse" color-interpolation-filters="sRGB">
    <feFlood flood-opacity="0" result="BackgroundImageFix"/>
    <feBlend mode="normal" in="SourceGraphic" in2="BackgroundImageFix" result="shape"/>
    <feGaussianBlur stdDeviation="1.5" result="effect1_foregroundBlur">
      <animate attributeName="stdDeviation" from="1.5" to="0" dur="3s" fill="freeze" begin="0.2s"/>
    </feGaussianBlur>
  </filter>
  <filter id="f1" x="257.048" y="34.904" width="115.424" height="61.808" filterUnits="userSpaceOnUse" color-interpolation-filters="sRGB">
    <feFlood flood-opacity="0" result="BackgroundImageFix"/>
    <feBlend mode="normal" in="SourceGraphic" in2="BackgroundImageFix" result="shape"/>
    <feGaussianBlur stdDeviation="3" result="effect1_foregroundBlur">
      <animate attributeName="stdDeviation" from="3" to="0" dur="3s" fill="freeze" begin="0.2s"/>
    </feGaussianBlur>
  </filter>
  <filter id="f2" x="167.84" y="37.904" width="90.2997" height="56.192" filterUnits="userSpaceOnUse" color-interpolation-filters="sRGB">
    <feFlood flood-opacity="0" result="BackgroundImageFix"/>
    <feBlend mode="normal" in="SourceGraphic" in2="BackgroundImageFix" result="shape"/>
    <feGaussianBlur stdDeviation="2" result="effect1_foregroundBlur">
      <animate attributeName="stdDeviation" from="2" to="0" dur="3s" fill="freeze" begin="0.2s"/>
    </feGaussianBlur>
  </filter>
  <filter id="f3" x="380.904" y="12.016" width="93.7983" height="85.984" filterUnits="userSpaceOnUse" color-interpolation-filters="sRGB">
    <feFlood flood-opacity="0" result="BackgroundImageFix"/>
    <feBlend mode="normal" in="SourceGraphic" in2="BackgroundImageFix" result="shape"/>
    <feGaussianBlur stdDeviation="4" result="effect1_foregroundBlur">
      <animate attributeName="stdDeviation" from="4" to="0" dur="3s" fill="freeze" begin="0.2s"/>
    </feGaussianBlur>
  </filter>
  <filter id="f4" x="488.296" y="7.384" width="351.366" height="95.344" filterUnits="userSpaceOnUse" color-interpolation-filters="sRGB">
    <feFlood flood-opacity="0" result="BackgroundImageFix"/>
    <feBlend mode="normal" in="SourceGraphic" in2="BackgroundImageFix" result="shape"/>
    <feGaussianBlur stdDeviation="5" result="effect1_foregroundBlur">
      <animate attributeName="stdDeviation" from="5" to="0" dur="3s" fill="freeze" begin="0.2s"/>
    </feGaussianBlur>
  </filter>
</defs>

<g filter="url(#f0)" style="fill:none;stroke:none;color:rgb(255, 255, 255);stroke-width:1px;stroke-linecap:butt;stroke-linejoin:miter;opacity:1;font-family:&quot;Anthropic Sans&quot;, -apple-system, BlinkMacSystemFont, &quot;Segoe UI&quot;, sans-serif;font-size:16px;font-weight:400;text-anchor:start;dominant-baseline:auto">
<path d="M17.856 21.744C17.664 23.408 17.248 26.288 16.608 30.384C16.032 34.48 15.584 37.84 15.264 40.464C14.304 48.336 13.824 54.832 13.824 59.952C13.824 65.072 13.984 69.072 14.304 71.952C14.688 74.768 15.264 77.456 16.032 80.016C16.8 82.512 17.92 84.496 19.392 85.968C20.928 87.44 22.72 88.176 24.768 88.176C27.712 88.176 30.304 86.576 32.544 83.376C34.848 80.176 36.64 76.08 37.92 71.088C39.2 66.032 40.288 60.944 41.184 55.824C42.144 50.704 43.04 45.712 43.872 40.848C44.768 35.984 45.6 32.656 46.368 30.864C48.096 29.712 49.408 29.136 50.304 29.136C51.2 29.136 51.872 29.232 52.32 29.424C52.704 32.496 53.088 38.096 53.472 46.224C53.92 54.288 54.496 60.56 55.2 65.04C55.968 69.52 56.928 73.328 58.08 76.464C59.296 79.6 61.088 82.224 63.456 84.336C65.824 86.384 68.544 87.408 71.616 87.408C74.752 87.408 77.312 85.968 79.296 83.088C81.28 80.208 82.72 76.368 83.616 71.568C85.216 62.992 86.016 54.16 86.016 45.072C86.016 35.92 85.248 28.784 83.712 23.664C85.312 22.512 86.784 21.936 88.128 21.936C89.472 21.936 90.624 22.992 91.584 25.104C92.544 27.216 93.216 29.904 93.6 33.168C94.304 39.056 94.656 44.4 94.656 49.2C94.656 54 94.208 58.832 93.312 63.696C92.416 68.56 91.008 73.104 89.088 77.328C87.232 81.488 84.608 84.816 81.216 87.312C77.888 89.744 74.016 90.96 69.6 90.96C66.656 90.896 64 90.192 61.632 88.848C59.328 87.44 57.472 85.808 56.064 83.952C54.656 82.032 53.376 79.536 52.224 76.464C50.56 72.048 49.152 66.416 48 59.568C45.312 68.976 43.04 75.472 41.184 79.056C36.64 87.696 30.4 92.048 22.464 92.112C17.344 92.112 13.504 90.256 10.944 86.544C8.704 83.216 7.296 78.544 6.72 72.528C6.528 69.968 6.432 67.056 6.432 63.792C6.432 53.104 8.16 39.472 11.616 22.896C13.28 21.936 14.592 21.456 15.552 21.456C16.576 21.456 17.344 21.552 17.856 21.744ZM109.841 70.512C109.713 71.792 109.649 72.656 109.649 73.104C109.649 76.944 110.801 79.92 113.105 82.032C115.473 84.144 118.257 85.2 121.457 85.2C124.657 85.2 127.249 84.752 129.233 83.856C131.281 82.96 132.753 82 133.649 80.976C135.953 78.096 138.065 76.656 139.985 76.656C140.689 76.656 141.521 76.848 142.481 77.232C141.841 80.368 139.409 83.248 135.185 85.872C131.025 88.432 125.777 89.712 119.441 89.712C114.961 89.712 111.089 88.304 107.825 85.488C104.625 82.608 103.025 78.704 103.025 73.776C103.025 68.848 103.985 64.08 105.905 59.472C107.889 54.8 110.705 50.832 114.353 47.568C118.065 44.24 121.809 42.576 125.585 42.576C129.425 42.576 132.497 43.376 134.801 44.976C137.169 46.512 138.353 48.784 138.353 51.792C138.353 57.36 135.857 61.968 130.865 65.616C125.937 69.2 120.689 70.992 115.121 70.992C113.649 70.992 111.889 70.832 109.841 70.512ZM117.137 67.344C120.145 67.344 122.833 66.384 125.201 64.464C127.569 62.544 129.233 60.528 130.193 58.416C131.217 56.304 131.729 54.384 131.729 52.656C131.729 50.928 131.057 49.424 129.713 48.144C128.369 46.8 126.801 46.128 125.009 46.128C121.809 46.128 118.833 48.336 116.081 52.752C113.393 57.168 111.473 61.744 110.321 66.48C113.137 67.056 115.409 67.344 117.137 67.344ZM153.488 32.592C153.488 26.256 152.624 22 150.896 19.824C151.728 18.608 153.168 18 155.216 18C155.6 18 156.016 18.032 156.464 18.096C158.064 19.696 158.864 24.336 158.864 32.016C158.864 36.176 158.672 41.008 158.288 46.512C157.52 56.112 157.136 63.152 157.136 67.632C157.136 79.728 159.472 85.776 164.144 85.776C164.144 85.776 165.328 85.552 167.696 85.104C168.272 85.104 168.752 85.36 169.136 85.872C168.944 88.176 167.056 89.328 163.472 89.328C159.952 89.328 157.232 88.272 155.312 86.16C153.392 83.984 152.176 81.296 151.664 78.096C151.216 74.832 150.992 72.144 150.992 70.032C150.992 67.92 151.024 65.616 151.088 63.12C151.152 60.56 151.44 56.912 151.952 52.176C152.976 42.576 153.488 36.048 153.488 32.592Z" fill="white" style="fill:rgb(255, 255, 255);stroke:none;color:rgb(255, 255, 255);stroke-width:1px;stroke-linecap:butt;stroke-linejoin:miter;opacity:1;font-family:&quot;Anthropic Sans&quot;, -apple-system, BlinkMacSystemFont, &quot;Segoe UI&quot;, sans-serif;font-size:16px;font-weight:400;text-anchor:start;dominant-baseline:auto"/>
</g>

<g filter="url(#f1)" style="fill:none;stroke:none;color:rgb(255, 255, 255);stroke-width:1px;stroke-linecap:butt;stroke-linejoin:miter;opacity:1;font-family:&quot;Anthropic Sans&quot;, -apple-system, BlinkMacSystemFont, &quot;Segoe UI&quot;, sans-serif;font-size:16px;font-weight:400;text-anchor:start;dominant-baseline:auto">
<mask id="path-2-outside-1" maskUnits="userSpaceOnUse" x="263" y="40" width="104" height="51" fill="black">
<rect fill="white" x="263" y="40" width="104" height="51"/>
<path d="M268.176 48.048C268.88 48.048 269.232 52.272 269.232 60.72C269.232 62.064 269.2 64.208 269.136 67.152C269.136 70.096 269.136 71.632 269.136 71.76C269.776 64.528 270.416 59.6 271.056 56.976C271.76 54.352 272.464 52.112 273.168 50.256C273.872 48.336 274.64 46.864 275.472 45.84C277.52 43.216 279.888 41.904 282.576 41.904C285.968 41.904 288.496 43.6 290.16 46.992C291.888 50.384 292.784 54.896 292.848 60.528C294.448 48.944 298.672 43.152 305.52 43.152C308.464 43.152 310.544 44.656 311.76 47.664C312.976 50.672 313.584 54.256 313.584 58.416L313.296 73.008C313.296 82.608 315.376 87.408 319.536 87.408L325.008 86.544C325.328 86.544 325.648 86.576 325.968 86.64C325.328 87.6 324.144 88.368 322.416 88.944C320.688 89.456 318.992 89.712 317.328 89.712C314.064 89.712 311.6 88.272 309.936 85.392C308.336 82.448 307.472 79.376 307.344 76.176C307.216 72.912 307.152 70.128 307.152 67.824L307.344 59.28C307.344 56.464 307.152 53.776 306.768 51.216C306.448 48.656 305.552 47.376 304.08 47.376C301.904 47.376 299.792 51.952 297.744 61.104C295.76 70.192 294.544 78.832 294.096 87.024C293.008 88.176 291.632 88.784 289.968 88.848C289.456 88.848 288.976 88.752 288.528 88.56C287.952 85.232 287.632 79.696 287.568 71.952C287.568 64.144 287.184 57.936 286.416 53.328C285.648 48.72 283.92 46.416 281.232 46.416C279.44 46.416 277.968 48.4 276.816 52.368C274.96 58.576 273.296 68.24 271.824 81.36C271.44 84.432 271.152 86.64 270.96 87.984C269.616 89.136 268.24 89.712 266.832 89.712L265.392 89.52C264.496 78.832 264.048 65.584 264.048 49.776C264.752 48.624 266.128 48.048 268.176 48.048ZM332.685 70.512C332.557 71.792 332.493 72.656 332.493 73.104C332.493 76.944 333.645 79.92 335.949 82.032C338.317 84.144 341.101 85.2 344.301 85.2C347.501 85.2 350.093 84.752 352.077 83.856C354.125 82.96 355.597 82 356.493 80.976C358.797 78.096 360.909 76.656 362.829 76.656C363.533 76.656 364.365 76.848 365.325 77.232C364.685 80.368 362.253 83.248 358.029 85.872C353.869 88.432 348.621 89.712 342.285 89.712C337.805 89.712 333.933 88.304 330.669 85.488C327.469 82.608 325.869 78.704 325.869 73.776C325.869 68.848 326.829 64.08 328.749 59.472C330.733 54.8 333.549 50.832 337.197 47.568C340.909 44.24 344.653 42.576 348.429 42.576C352.269 42.576 355.341 43.376 357.645 44.976C360.013 46.512 361.197 48.784 361.197 51.792C361.197 57.36 358.701 61.968 353.709 65.616C348.781 69.2 343.533 70.992 337.965 70.992C336.493 70.992 334.733 70.832 332.685 70.512ZM339.981 67.344C342.989 67.344 345.677 66.384 348.045 64.464C350.413 62.544 352.077 60.528 353.037 58.416C354.061 56.304 354.573 54.384 354.573 52.656C354.573 50.928 353.901 49.424 352.557 48.144C351.213 46.8 349.645 46.128 347.853 46.128C344.653 46.128 341.677 48.336 338.925 52.752C336.237 57.168 334.317 61.744 333.165 66.48C335.981 67.056 338.253 67.344 339.981 67.344Z"/>
</mask>
<path d="M268.176 48.048C268.88 48.048 269.232 52.272 269.232 60.72C269.232 62.064 269.2 64.208 269.136 67.152C269.136 70.096 269.136 71.632 269.136 71.76C269.776 64.528 270.416 59.6 271.056 56.976C271.76 54.352 272.464 52.112 273.168 50.256C273.872 48.336 274.64 46.864 275.472 45.84C277.52 43.216 279.888 41.904 282.576 41.904C285.968 41.904 288.496 43.6 290.16 46.992C291.888 50.384 292.784 54.896 292.848 60.528C294.448 48.944 298.672 43.152 305.52 43.152C308.464 43.152 310.544 44.656 311.76 47.664C312.976 50.672 313.584 54.256 313.584 58.416L313.296 73.008C313.296 82.608 315.376 87.408 319.536 87.408L325.008 86.544C325.328 86.544 325.648 86.576 325.968 86.64C325.328 87.6 324.144 88.368 322.416 88.944C320.688 89.456 318.992 89.712 317.328 89.712C314.064 89.712 311.6 88.272 309.936 85.392C308.336 82.448 307.472 79.376 307.344 76.176C307.216 72.912 307.152 70.128 307.152 67.824L307.344 59.28C307.344 56.464 307.152 53.776 306.768 51.216C306.448 48.656 305.552 47.376 304.08 47.376C301.904 47.376 299.792 51.952 297.744 61.104C295.76 70.192 294.544 78.832 294.096 87.024C293.008 88.176 291.632 88.784 289.968 88.848C289.456 88.848 288.976 88.752 288.528 88.56C287.952 85.232 287.632 79.696 287.568 71.952C287.568 64.144 287.184 57.936 286.416 53.328C285.648 48.72 283.92 46.416 281.232 46.416C279.44 46.416 277.968 48.4 276.816 52.368C274.96 58.576 273.296 68.24 271.824 81.36C271.44 84.432 271.152 86.64 270.96 87.984C269.616 89.136 268.24 89.712 266.832 89.712L265.392 89.52C264.496 78.832 264.048 65.584 264.048 49.776C264.752 48.624 266.128 48.048 268.176 48.048ZM332.685 70.512C332.557 71.792 332.493 72.656 332.493 73.104C332.493 76.944 333.645 79.92 335.949 82.032C338.317 84.144 341.101 85.2 344.301 85.2C347.501 85.2 350.093 84.752 352.077 83.856C354.125 82.96 355.597 82 356.493 80.976C358.797 78.096 360.909 76.656 362.829 76.656C363.533 76.656 364.365 76.848 365.325 77.232C364.685 80.368 362.253 83.248 358.029 85.872C353.869 88.432 348.621 89.712 342.285 89.712C337.805 89.712 333.933 88.304 330.669 85.488C327.469 82.608 325.869 78.704 325.869 73.776C325.869 68.848 326.829 64.08 328.749 59.472C330.733 54.8 333.549 50.832 337.197 47.568C340.909 44.24 344.653 42.576 348.429 42.576C352.269 42.576 355.341 43.376 357.645 44.976C360.013 46.512 361.197 48.784 361.197 51.792C361.197 57.36 358.701 61.968 353.709 65.616C348.781 69.2 343.533 70.992 337.965 70.992C336.493 70.992 334.733 70.832 332.685 70.512ZM339.981 67.344C342.989 67.344 345.677 66.384 348.045 64.464C350.413 62.544 352.077 60.528 353.037 58.416C354.061 56.304 354.573 54.384 354.573 52.656C354.573 50.928 353.901 49.424 352.557 48.144C351.213 46.8 349.645 46.128 347.853 46.128C344.653 46.128 341.677 48.336 338.925 52.752C336.237 57.168 334.317 61.744 333.165 66.48C335.981 67.056 338.253 67.344 339.981 67.344Z" fill="white" style="fill:rgb(255, 255, 255);stroke:none;color:rgb(255, 255, 255);stroke-width:1px;stroke-linecap:butt;stroke-linejoin:miter;opacity:1;font-family:&quot;Anthropic Sans&quot;, -apple-system, BlinkMacSystemFont, &quot;Segoe UI&quot;, sans-serif;font-size:16px;font-weight:400;text-anchor:start;dominant-baseline:auto"/>
</g>

<g filter="url(#f2)" style="fill:none;stroke:none;color:rgb(255, 255, 255);stroke-width:1px;stroke-linecap:butt;stroke-linejoin:miter;opacity:1;font-family:&quot;Anthropic Sans&quot;, -apple-system, BlinkMacSystemFont, &quot;Segoe UI&quot;, sans-serif;font-size:16px;font-weight:400;text-anchor:start;dominant-baseline:auto">
<path d="M205.92 54C204.704 55.216 203.488 55.824 202.272 55.824C201.056 55.824 200.064 55.312 199.296 54.288C198.592 53.2 198.016 52.048 197.568 50.832C197.12 49.552 196.288 48.4 195.072 47.376C193.92 46.288 192.448 45.744 190.656 45.744C188.16 46 185.888 47.792 183.84 51.12C181.792 54.384 180.288 58 179.328 61.968C178.368 65.936 177.888 69.68 177.888 73.2C177.888 76.656 178.848 79.664 180.768 82.224C182.752 84.72 185.408 85.968 188.736 85.968C192.576 85.968 195.648 84.624 197.952 81.936C198.912 80.784 199.808 79.632 200.64 78.48C202.688 75.792 204.544 74.448 206.208 74.448C206.784 74.448 207.616 74.608 208.704 74.928C208.704 77.296 206.528 80.432 202.176 84.336C197.888 88.176 193.216 90.096 188.16 90.096C183.104 90.096 179.104 88.496 176.16 85.296C173.28 82.032 171.84 77.84 171.84 72.72C171.84 66.128 173.44 59.536 176.64 52.944C178.24 49.744 180.416 47.12 183.168 45.072C185.92 42.96 188.992 41.904 192.384 41.904C195.776 41.904 198.496 43.056 200.544 45.36C202.656 47.6 204.448 50.48 205.92 54ZM219.772 50.16C223.036 45.168 227.74 42.672 233.884 42.672C240.028 42.672 244.924 45.168 248.572 50.16C252.284 55.152 254.14 60.848 254.14 67.248C254.14 73.584 252.124 78.96 248.092 83.376C244.06 87.792 238.94 90 232.732 90C226.524 90 222.012 88.272 219.196 84.816C216.38 81.296 214.972 76.368 214.972 70.032C214.972 61.776 216.572 55.152 219.772 50.16ZM223.996 55.248C223.164 57.744 222.524 60.24 222.076 62.736C221.692 65.232 221.5 67.568 221.5 69.744C221.5 71.856 221.66 73.808 221.98 75.6C222.3 77.328 222.844 79.056 223.612 80.784C224.38 82.448 225.532 83.792 227.068 84.816C228.604 85.776 230.428 86.256 232.54 86.256C236.828 86.256 240.412 84.496 243.292 80.976C246.236 77.456 247.708 73.2 247.708 68.208C247.708 63.216 246.364 58.384 243.676 53.712C241.052 48.976 237.82 46.608 233.98 46.608C231.676 46.608 229.66 47.408 227.932 49.008C226.204 50.608 224.892 52.688 223.996 55.248Z" fill="white" style="fill:rgb(255, 255, 255);stroke:none;color:rgb(255, 255, 255);stroke-width:1px;stroke-linecap:butt;stroke-linejoin:miter;opacity:1;font-family:&quot;Anthropic Sans&quot;, -apple-system, BlinkMacSystemFont, &quot;Segoe UI&quot;, sans-serif;font-size:16px;font-weight:400;text-anchor:start;dominant-baseline:auto"/>
</g>

<g filter="url(#f3)" style="fill:none;stroke:none;color:rgb(255, 255, 255);stroke-width:1px;stroke-linecap:butt;stroke-linejoin:miter;opacity:1;font-family:&quot;Anthropic Sans&quot;, -apple-system, BlinkMacSystemFont, &quot;Segoe UI&quot;, sans-serif;font-size:16px;font-weight:400;text-anchor:start;dominant-baseline:auto">
<path d="M394.76 49.776C391.88 49.776 389.928 49.072 388.904 47.664C388.904 46.64 389.32 45.84 390.152 45.264C391.048 44.688 392.008 44.336 393.032 44.208C394.056 44.016 395.72 43.856 398.024 43.728C398.216 42 398.312 39.792 398.312 37.104C398.376 34.352 398.44 32.016 398.504 30.096C398.696 25.04 399.464 21.936 400.808 20.784C401.384 20.272 401.992 20.016 402.632 20.016C403.336 20.016 403.944 20.08 404.456 20.208C404.648 24.816 404.744 27.6 404.744 28.56L404.168 42.96C404.296 43.024 404.648 43.056 405.224 43.056L412.136 42.768C417.128 42.768 419.624 43.536 419.624 45.072C419.624 47.248 418.728 48.528 416.936 48.912C416.104 49.104 415.112 49.2 413.96 49.2C412.872 49.2 411.432 49.072 409.64 48.816C407.912 48.496 406.664 48.336 405.896 48.336C405.128 48.336 404.616 48.368 404.36 48.432C404.168 50.288 404.072 52.144 404.072 54C404.072 55.792 404.104 58.064 404.168 60.816C404.296 63.504 404.552 66.736 404.936 70.512C405.384 74.288 406.312 77.552 407.72 80.304C409.128 82.992 410.92 84.336 413.096 84.336C414.184 84.336 415.464 83.92 416.936 83.088C418.408 82.192 419.528 81.744 420.296 81.744C421.128 81.744 421.832 81.936 422.408 82.32C423.048 82.64 423.368 83.024 423.368 83.472C423.368 84.816 421.992 86.128 419.24 87.408C416.552 88.624 414.248 89.232 412.328 89.232C405.288 89.232 400.904 82.576 399.176 69.264C398.664 65.424 398.28 58.832 398.024 49.488C397 49.68 395.912 49.776 394.76 49.776ZM432.334 50.16C435.598 45.168 440.302 42.672 446.446 42.672C452.59 42.672 457.486 45.168 461.134 50.16C464.846 55.152 466.702 60.848 466.702 67.248C466.702 73.584 464.686 78.96 460.654 83.376C456.622 87.792 451.502 90 445.294 90C439.086 90 434.574 88.272 431.758 84.816C428.942 81.296 427.534 76.368 427.534 70.032C427.534 61.776 429.134 55.152 432.334 50.16ZM436.558 55.248C435.726 57.744 435.086 60.24 434.638 62.736C434.254 65.232 434.062 67.568 434.062 69.744C434.062 71.856 434.222 73.808 434.542 75.6C434.862 77.328 435.406 79.056 436.174 80.784C436.942 82.448 438.094 83.792 439.63 84.816C441.166 85.776 442.99 86.256 445.102 86.256C449.39 86.256 452.974 84.496 455.854 80.976C458.798 77.456 460.27 73.2 460.27 68.208C460.27 63.216 458.926 58.384 456.238 53.712C453.614 48.976 450.382 46.608 446.542 46.608C444.238 46.608 442.222 47.408 440.494 49.008C438.766 50.608 437.454 52.688 436.558 55.248Z" fill="white" style="fill:rgb(255, 255, 255);stroke:none;color:rgb(255, 255, 255);stroke-width:1px;stroke-linecap:butt;stroke-linejoin:miter;opacity:1;font-family:&quot;Anthropic Sans&quot;, -apple-system, BlinkMacSystemFont, &quot;Segoe UI&quot;, sans-serif;font-size:16px;font-weight:400;text-anchor:start;dominant-baseline:auto"/>
</g>

<g filter="url(#f4)" style="fill:none;stroke:none;color:rgb(255, 255, 255);stroke-width:1px;stroke-linecap:butt;stroke-linejoin:miter;opacity:1;font-family:&quot;Anthropic Sans&quot;, -apple-system, BlinkMacSystemFont, &quot;Segoe UI&quot;, sans-serif;font-size:16px;font-weight:400;text-anchor:start;dominant-baseline:auto">
<mask id="path-6-outside-2" maskUnits="userSpaceOnUse" x="498" y="17" width="332" height="76" fill="black">
<rect fill="white" x="498" y="17" width="332" height="76"/>
<path d="M500.928 51.792C500.928 41.424 500.384 31.952 499.296 23.376C499.296 22.032 500.224 21.36 502.08 21.36C503.936 21.36 506.4 23.152 509.472 26.736C512.544 30.256 515.488 34.128 518.304 38.352C521.12 42.576 523.936 46.48 526.752 50.064C529.632 53.584 531.68 55.344 532.896 55.344C534.112 55.344 536.064 53.488 538.752 49.776C541.504 46 544.192 41.904 546.816 37.488C549.504 33.008 552.384 28.912 555.456 25.2C558.592 21.424 561.088 19.536 562.944 19.536C564.864 19.536 565.824 20.048 565.824 21.072C566.4 28.944 566.688 35.984 566.688 42.192C566.688 48.4 566.656 53.456 566.592 57.36C566.528 61.2 566.464 64.016 566.4 65.808C566.4 67.536 566.304 71.536 566.112 77.808C565.92 84.016 565.824 87.664 565.824 88.752C564.864 90.096 563.552 90.768 561.888 90.768C561.184 90.768 560.512 90.576 559.872 90.192C559.488 82.32 559.296 73.04 559.296 62.352C559.296 51.664 559.392 40.592 559.584 29.136C558.304 30.16 556.48 32.56 554.112 36.336C551.808 40.048 549.568 43.76 547.392 47.472C545.216 51.12 542.752 54.448 540 57.456C537.248 60.4 534.688 61.872 532.32 61.872C529.952 61.872 527.232 60.144 524.16 56.688C521.152 53.232 517.792 48.56 514.08 42.672C510.432 36.72 508.032 33.008 506.88 31.536C507.2 36.912 507.36 42.512 507.36 48.336C507.36 54.096 507.328 58.128 507.264 60.432C507.2 70.672 507.008 79.984 506.688 88.368C505.664 89.712 504.064 90.384 501.888 90.384C501.312 90.384 500.768 90.288 500.256 90.096C500.256 90.096 500.48 77.328 500.928 51.792ZM582.678 50.16C585.942 45.168 590.646 42.672 596.79 42.672C602.934 42.672 607.83 45.168 611.478 50.16C615.19 55.152 617.046 60.848 617.046 67.248C617.046 73.584 615.03 78.96 610.998 83.376C606.966 87.792 601.846 90 595.638 90C589.43 90 584.918 88.272 582.102 84.816C579.286 81.296 577.878 76.368 577.878 70.032C577.878 61.776 579.478 55.152 582.678 50.16ZM586.902 55.248C586.07 57.744 585.43 60.24 584.982 62.736C584.598 65.232 584.406 67.568 584.406 69.744C584.406 71.856 584.566 73.808 584.886 75.6C585.206 77.328 585.75 79.056 586.518 80.784C587.286 82.448 588.438 83.792 589.974 84.816C591.51 85.776 593.334 86.256 595.446 86.256C599.734 86.256 603.318 84.496 606.198 80.976C609.142 77.456 610.614 73.2 610.614 68.208C610.614 63.216 609.27 58.384 606.582 53.712C603.958 48.976 600.726 46.608 596.886 46.608C594.582 46.608 592.566 47.408 590.838 49.008C589.11 50.608 587.798 52.688 586.902 55.248ZM652.301 78.864C651.277 81.808 649.293 84.304 646.349 86.352C643.469 88.4 640.301 89.424 636.845 89.424C633.453 89.424 630.797 87.728 628.877 84.336C627.021 80.88 626.093 76.112 626.093 70.032C626.093 52.88 628.621 44.304 633.677 44.304C634.317 44.304 635.117 44.4 636.077 44.592C635.885 45.616 635.437 47.568 634.733 50.448C633.325 56.08 632.621 61.04 632.621 65.328C632.621 69.616 633.229 74.16 634.445 78.96C635.661 83.696 637.389 86.064 639.629 86.064C640.781 86.064 641.901 85.328 642.989 83.856C644.077 82.384 644.941 80.848 645.581 79.248C646.221 77.584 646.893 75.696 647.597 73.584C648.301 71.472 648.749 70.192 648.941 69.744C647.981 66.032 647.501 62.256 647.501 58.416C647.501 58.224 647.501 57.648 647.501 56.688C647.501 55.664 647.533 54.672 647.597 53.712C647.661 52.752 647.853 51.6 648.173 50.256C648.813 47.568 650.541 46.224 653.357 46.224C655.725 46.224 656.909 49.808 656.909 56.976C656.909 58.256 656.717 60.112 656.333 62.544C656.013 64.976 655.853 66.672 655.853 67.632C655.853 70.576 657.261 74.384 660.077 79.056C662.893 83.728 665.517 86.064 667.949 86.064C670.445 86.064 672.269 84.656 673.421 81.84C674.573 79.024 675.149 75.888 675.149 72.432C675.149 68.464 674.797 65.456 674.093 63.408C673.453 61.296 673.037 59.92 672.845 59.28C672.717 58.64 672.301 57.648 671.597 56.304C670.957 54.896 670.541 54 670.349 53.616C670.221 53.232 669.741 52.304 668.909 50.832C668.077 49.36 667.597 48.528 667.469 48.336C665.613 45.072 664.525 43.28 664.205 42.96C665.805 41.616 667.277 40.944 668.621 40.944C672.525 43.76 675.629 48.368 677.933 54.768C680.237 61.104 681.389 66.896 681.389 72.144C681.389 77.328 680.269 81.424 678.029 84.432C675.853 87.376 672.429 88.848 667.757 88.848C664.493 88.848 661.389 87.952 658.445 86.16C655.565 84.304 653.517 81.872 652.301 78.864ZM697.793 19.344C697.729 20.816 697.697 22.448 697.697 24.24C697.697 26.032 697.793 27.888 697.984 29.808C697.089 30.832 695.873 31.344 694.337 31.344C692.417 31.344 691.457 29.808 691.457 26.736C691.457 26.608 691.457 26.128 691.457 25.296C691.457 24.464 691.457 23.728 691.457 23.088C691.521 22.384 691.649 21.584 691.841 20.688C692.289 19.152 693.281 18.384 694.817 18.384C696.353 18.384 697.345 18.704 697.793 19.344ZM691.648 66.384C691.648 53.84 692.289 46.608 693.569 44.688C694.017 43.984 694.561 43.632 695.201 43.632C695.841 43.632 696.897 43.984 698.369 44.688C698.049 50.128 697.889 56.048 697.889 62.448C697.889 62.448 697.953 69.52 698.081 83.664C698.081 85.648 697.633 87.056 696.737 87.888C695.905 88.656 695.105 89.04 694.337 89.04C693.633 89.04 692.897 88.848 692.129 88.464C691.809 80.144 691.648 72.784 691.648 66.384ZM734.291 51.6C733.715 50.128 732.627 48.976 731.027 48.144C729.427 47.312 727.443 46.896 725.075 46.896C722.707 46.896 720.467 47.6 718.355 49.008C716.307 50.416 715.283 52.304 715.283 54.672C715.283 57.04 716.243 58.928 718.163 60.336C720.147 61.68 722.515 62.704 725.267 63.408C728.083 64.112 730.899 64.88 733.715 65.712C736.531 66.48 738.899 67.792 740.819 69.648C742.803 71.44 743.795 73.808 743.795 76.752C743.795 81.04 742.003 84.304 738.419 86.544C734.899 88.784 730.643 89.904 725.651 89.904C722.707 89.904 718.835 89.104 714.035 87.504C709.299 85.904 706.931 83.984 706.931 81.744C706.931 80.08 708.339 79.248 711.155 79.248C711.987 79.248 713.075 79.76 714.419 80.784C718.515 83.792 722.707 85.296 726.995 85.296C729.299 85.296 731.283 84.912 732.947 84.144C736.019 82.672 737.555 80.304 737.555 77.04C737.555 75.056 736.563 73.456 734.579 72.24C732.659 71.024 730.291 70.064 727.475 69.36C724.723 68.656 721.939 67.888 719.123 67.056C716.307 66.224 713.907 64.848 711.923 62.928C710.003 60.944 709.043 58.448 709.043 55.44C709.043 51.536 710.803 48.368 714.323 45.936C717.843 43.504 722.195 42.288 727.379 42.288C730.899 42.288 734.067 43.216 736.883 45.072C739.763 46.864 741.203 49.488 741.203 52.944C741.203 55.248 739.891 56.4 737.267 56.4C736.179 56.4 735.443 56.208 735.059 55.824C734.739 55.44 734.547 54.768 734.483 53.808C734.483 52.784 734.419 52.048 734.291 51.6ZM809.8 89.52C808.776 90.928 807.304 91.632 805.384 91.632C804.872 91.632 804.36 91.568 803.848 91.44C802.44 88.24 801.384 83.728 800.68 77.904C800.04 72.016 799.56 68.144 799.24 66.288C792.264 66.032 785.288 65.904 778.312 65.904C771.336 65.904 765.096 66.192 759.592 66.768C759.016 69.392 758.376 73.328 757.672 78.576C757.032 83.76 756.552 87.248 756.232 89.04C753.928 90.896 751.848 91.152 749.992 89.808C750.184 88.272 750.472 85.84 750.856 82.512C751.24 79.184 751.56 76.368 751.816 74.064C752.136 71.696 752.584 68.72 753.16 65.136C753.736 61.552 754.28 58.48 754.792 55.92C755.368 53.296 756.136 50.384 757.096 47.184C758.056 43.92 759.048 41.136 760.072 38.832C761.096 36.528 762.344 34.192 763.816 31.824C765.352 29.456 766.984 27.536 768.712 26.064C772.68 22.8 777 21.168 781.672 21.168C786.344 21.168 790.216 22.96 793.288 26.544C796.424 30.128 798.792 34.832 800.392 40.656C801.992 46.48 803.272 52.336 804.232 58.224C805.192 64.112 806.12 70.128 807.016 76.272C807.912 82.416 808.84 86.832 809.8 89.52ZM791.944 36.24C790.728 33.104 789.16 30.672 787.24 28.944C785.32 27.152 782.952 26.256 780.136 26.256C777.32 26.256 774.6 27.632 771.976 30.384C769.352 33.136 767.272 36.56 765.736 40.656C762.984 48.272 761.256 55.312 760.552 61.776C766.952 61.072 773.384 60.72 779.848 60.72C786.312 60.72 792.552 60.912 798.568 61.296C798.312 60.336 797.832 58.064 797.128 54.48C796.424 50.896 795.688 47.76 794.92 45.072C794.216 42.32 793.224 39.376 791.944 36.24ZM828.648 22.416C828.008 51.344 827.656 73.936 827.592 90.192C826.632 91.216 825.768 91.728 825 91.728C824.296 91.728 823.688 91.568 823.176 91.248C821.704 90.288 820.968 88.496 820.968 85.872C821.096 55.088 821.32 37.072 821.64 31.824C821.96 26.576 822.44 23.536 823.08 22.704C823.72 21.872 824.488 21.456 825.384 21.456C826.28 21.456 827.368 21.776 828.648 22.416Z"/>
</mask>
<path d="M500.928 51.792C500.928 41.424 500.384 31.952 499.296 23.376C499.296 22.032 500.224 21.36 502.08 21.36C503.936 21.36 506.4 23.152 509.472 26.736C512.544 30.256 515.488 34.128 518.304 38.352C521.12 42.576 523.936 46.48 526.752 50.064C529.632 53.584 531.68 55.344 532.896 55.344C534.112 55.344 536.064 53.488 538.752 49.776C541.504 46 544.192 41.904 546.816 37.488C549.504 33.008 552.384 28.912 555.456 25.2C558.592 21.424 561.088 19.536 562.944 19.536C564.864 19.536 565.824 20.048 565.824 21.072C566.4 28.944 566.688 35.984 566.688 42.192C566.688 48.4 566.656 53.456 566.592 57.36C566.528 61.2 566.464 64.016 566.4 65.808C566.4 67.536 566.304 71.536 566.112 77.808C565.92 84.016 565.824 87.664 565.824 88.752C564.864 90.096 563.552 90.768 561.888 90.768C561.184 90.768 560.512 90.576 559.872 90.192C559.488 82.32 559.296 73.04 559.296 62.352C559.296 51.664 559.392 40.592 559.584 29.136C558.304 30.16 556.48 32.56 554.112 36.336C551.808 40.048 549.568 43.76 547.392 47.472C545.216 51.12 542.752 54.448 540 57.456C537.248 60.4 534.688 61.872 532.32 61.872C529.952 61.872 527.232 60.144 524.16 56.688C521.152 53.232 517.792 48.56 514.08 42.672C510.432 36.72 508.032 33.008 506.88 31.536C507.2 36.912 507.36 42.512 507.36 48.336C507.36 54.096 507.328 58.128 507.264 60.432C507.2 70.672 507.008 79.984 506.688 88.368C505.664 89.712 504.064 90.384 501.888 90.384C501.312 90.384 500.768 90.288 500.256 90.096C500.256 90.096 500.48 77.328 500.928 51.792ZM582.678 50.16C585.942 45.168 590.646 42.672 596.79 42.672C602.934 42.672 607.83 45.168 611.478 50.16C615.19 55.152 617.046 60.848 617.046 67.248C617.046 73.584 615.03 78.96 610.998 83.376C606.966 87.792 601.846 90 595.638 90C589.43 90 584.918 88.272 582.102 84.816C579.286 81.296 577.878 76.368 577.878 70.032C577.878 61.776 579.478 55.152 582.678 50.16ZM586.902 55.248C586.07 57.744 585.43 60.24 584.982 62.736C584.598 65.232 584.406 67.568 584.406 69.744C584.406 71.856 584.566 73.808 584.886 75.6C585.206 77.328 585.75 79.056 586.518 80.784C587.286 82.448 588.438 83.792 589.974 84.816C591.51 85.776 593.334 86.256 595.446 86.256C599.734 86.256 603.318 84.496 606.198 80.976C609.142 77.456 610.614 73.2 610.614 68.208C610.614 63.216 609.27 58.384 606.582 53.712C603.958 48.976 600.726 46.608 596.886 46.608C594.582 46.608 592.566 47.408 590.838 49.008C589.11 50.608 587.798 52.688 586.902 55.248ZM652.301 78.864C651.277 81.808 649.293 84.304 646.349 86.352C643.469 88.4 640.301 89.424 636.845 89.424C633.453 89.424 630.797 87.728 628.877 84.336C627.021 80.88 626.093 76.112 626.093 70.032C626.093 52.88 628.621 44.304 633.677 44.304C634.317 44.304 635.117 44.4 636.077 44.592C635.885 45.616 635.437 47.568 634.733 50.448C633.325 56.08 632.621 61.04 632.621 65.328C632.621 69.616 633.229 74.16 634.445 78.96C635.661 83.696 637.389 86.064 639.629 86.064C640.781 86.064 641.901 85.328 642.989 83.856C644.077 82.384 644.941 80.848 645.581 79.248C646.221 77.584 646.893 75.696 647.597 73.584C648.301 71.472 648.749 70.192 648.941 69.744C647.981 66.032 647.501 62.256 647.501 58.416C647.501 58.224 647.501 57.648 647.501 56.688C647.501 55.664 647.533 54.672 647.597 53.712C647.661 52.752 647.853 51.6 648.173 50.256C648.813 47.568 650.541 46.224 653.357 46.224C655.725 46.224 656.909 49.808 656.909 56.976C656.909 58.256 656.717 60.112 656.333 62.544C656.013 64.976 655.853 66.672 655.853 67.632C655.853 70.576 657.261 74.384 660.077 79.056C662.893 83.728 665.517 86.064 667.949 86.064C670.445 86.064 672.269 84.656 673.421 81.84C674.573 79.024 675.149 75.888 675.149 72.432C675.149 68.464 674.797 65.456 674.093 63.408C673.453 61.296 673.037 59.92 672.845 59.28C672.717 58.64 672.301 57.648 671.597 56.304C670.957 54.896 670.541 54 670.349 53.616C670.221 53.232 669.741 52.304 668.909 50.832C668.077 49.36 667.597 48.528 667.469 48.336C665.613 45.072 664.525 43.28 664.205 42.96C665.805 41.616 667.277 40.944 668.621 40.944C672.525 43.76 675.629 48.368 677.933 54.768C680.237 61.104 681.389 66.896 681.389 72.144C681.389 77.328 680.269 81.424 678.029 84.432C675.853 87.376 672.429 88.848 667.757 88.848C664.493 88.848 661.389 87.952 658.445 86.16C655.565 84.304 653.517 81.872 652.301 78.864ZM697.793 19.344C697.729 20.816 697.697 22.448 697.697 24.24C697.697 26.032 697.793 27.888 697.984 29.808C697.089 30.832 695.873 31.344 694.337 31.344C692.417 31.344 691.457 29.808 691.457 26.736C691.457 26.608 691.457 26.128 691.457 25.296C691.457 24.464 691.457 23.728 691.457 23.088C691.521 22.384 691.649 21.584 691.841 20.688C692.289 19.152 693.281 18.384 694.817 18.384C696.353 18.384 697.345 18.704 697.793 19.344ZM691.648 66.384C691.648 53.84 692.289 46.608 693.569 44.688C694.017 43.984 694.561 43.632 695.201 43.632C695.841 43.632 696.897 43.984 698.369 44.688C698.049 50.128 697.889 56.048 697.889 62.448C697.889 62.448 697.953 69.52 698.081 83.664C698.081 85.648 697.633 87.056 696.737 87.888C695.905 88.656 695.105 89.04 694.337 89.04C693.633 89.04 692.897 88.848 692.129 88.464C691.809 80.144 691.648 72.784 691.648 66.384ZM734.291 51.6C733.715 50.128 732.627 48.976 731.027 48.144C729.427 47.312 727.443 46.896 725.075 46.896C722.707 46.896 720.467 47.6 718.355 49.008C716.307 50.416 715.283 52.304 715.283 54.672C715.283 57.04 716.243 58.928 718.163 60.336C720.147 61.68 722.515 62.704 725.267 63.408C728.083 64.112 730.899 64.88 733.715 65.712C736.531 66.48 738.899 67.792 740.819 69.648C742.803 71.44 743.795 73.808 743.795 76.752C743.795 81.04 742.003 84.304 738.419 86.544C734.899 88.784 730.643 89.904 725.651 89.904C722.707 89.904 718.835 89.104 714.035 87.504C709.299 85.904 706.931 83.984 706.931 81.744C706.931 80.08 708.339 79.248 711.155 79.248C711.987 79.248 713.075 79.76 714.419 80.784C718.515 83.792 722.707 85.296 726.995 85.296C729.299 85.296 731.283 84.912 732.947 84.144C736.019 82.672 737.555 80.304 737.555 77.04C737.555 75.056 736.563 73.456 734.579 72.24C732.659 71.024 730.291 70.064 727.475 69.36C724.723 68.656 721.939 67.888 719.123 67.056C716.307 66.224 713.907 64.848 711.923 62.928C710.003 60.944 709.043 58.448 709.043 55.44C709.043 51.536 710.803 48.368 714.323 45.936C717.843 43.504 722.195 42.288 727.379 42.288C730.899 42.288 734.067 43.216 736.883 45.072C739.763 46.864 741.203 49.488 741.203 52.944C741.203 55.248 739.891 56.4 737.267 56.4C736.179 56.4 735.443 56.208 735.059 55.824C734.739 55.44 734.547 54.768 734.483 53.808C734.483 52.784 734.419 52.048 734.291 51.6ZM809.8 89.52C808.776 90.928 807.304 91.632 805.384 91.632C804.872 91.632 804.36 91.568 803.848 91.44C802.44 88.24 801.384 83.728 800.68 77.904C800.04 72.016 799.56 68.144 799.24 66.288C792.264 66.032 785.288 65.904 778.312 65.904C771.336 65.904 765.096 66.192 759.592 66.768C759.016 69.392 758.376 73.328 757.672 78.576C757.032 83.76 756.552 87.248 756.232 89.04C753.928 90.896 751.848 91.152 749.992 89.808C750.184 88.272 750.472 85.84 750.856 82.512C751.24 79.184 751.56 76.368 751.816 74.064C752.136 71.696 752.584 68.72 753.16 65.136C753.736 61.552 754.28 58.48 754.792 55.92C755.368 53.296 756.136 50.384 757.096 47.184C758.056 43.92 759.048 41.136 760.072 38.832C761.096 36.528 762.344 34.192 763.816 31.824C765.352 29.456 766.984 27.536 768.712 26.064C772.68 22.8 777 21.168 781.672 21.168C786.344 21.168 790.216 22.96 793.288 26.544C796.424 30.128 798.792 34.832 800.392 40.656C801.992 46.48 803.272 52.336 804.232 58.224C805.192 64.112 806.12 70.128 807.016 76.272C807.912 82.416 808.84 86.832 809.8 89.52ZM791.944 36.24C790.728 33.104 789.16 30.672 787.24 28.944C785.32 27.152 782.952 26.256 780.136 26.256C777.32 26.256 774.6 27.632 771.976 30.384C769.352 33.136 767.272 36.56 765.736 40.656C762.984 48.272 761.256 55.312 760.552 61.776C766.952 61.072 773.384 60.72 779.848 60.72C786.312 60.72 792.552 60.912 798.568 61.296C798.312 60.336 797.832 58.064 797.128 54.48C796.424 50.896 795.688 47.76 794.92 45.072C794.216 42.32 793.224 39.376 791.944 36.24ZM828.648 22.416C828.008 51.344 827.656 73.936 827.592 90.192C826.632 91.216 825.768 91.728 825 91.728C824.296 91.728 823.688 91.568 823.176 91.248C821.704 90.288 820.968 88.496 820.968 85.872C821.096 55.088 821.32 37.072 821.64 31.824C821.96 26.576 822.44 23.536 823.08 22.704C823.72 21.872 824.488 21.456 825.384 21.456C826.28 21.456 827.368 21.776 828.648 22.416Z" fill="white" style="fill:rgb(255, 255, 255);stroke:none;color:rgb(255, 255, 255);stroke-width:1px;stroke-linecap:butt;stroke-linejoin:miter;opacity:1;font-family:&quot;Anthropic Sans&quot;, -apple-system, BlinkMacSystemFont, &quot;Segoe UI&quot;, sans-serif;font-size:16px;font-weight:400;text-anchor:start;dominant-baseline:auto"/>
</g>
</svg>